<?xml version="1.0" encoding="UTF-8" standalone="no"?>
<svg width="750px" height="190px" viewBox="0 0 750 190" version="1.1" xmlns="http://www.w3.org/2000/svg" xmlns:xlink="http://www.w3.org/1999/xlink" xmlns:sketch="http://www.bohemiancoding.com/sketch/ns">
    <!-- Generator: Sketch Beta 3.4 (15138) - http://www.bohemiancoding.com/sketch -->
    <title>OCL-Line-RGT_4c (1)</title>
    <desc>Created with Sketch Beta.</desc>
    <defs>
        <path id="path-1" d="M0,0.04 L749.215,0.04 L749.215,190 L0,190"></path>
        <path d="M0.379,40.525 L0.369,40.508 C9.022,29.166 13.853,15.312 13.997,0.675 C13.853,15.312 9.03,29.175 0.383,40.52 L0.379,40.525 M13.997,0.662 C13.997,0.632 13.997,0.602 13.998,0.571 C13.997,0.601 13.997,0.632 13.997,0.662 M13.998,0.55 L13.998,0.46 L13.998,0.55 M13.999,0.444 L13.999,0.34 L13.999,0.444 M13.999,0.321 C13.999,0.293 13.999,0.266 14,0.238 C13.999,0.266 13.999,0.293 13.999,0.321 M14,0.206 L14,0.132 L14,0.206 M14,0.102 L14,0 L14,0.102" id="path-3"></path>
        <path id="path-5" d="M16.732,69.407 C11.727,69.407 6.885,66.716 4.365,61.99 L0.383,54.52 C9.03,43.175 13.853,29.312 13.997,14.675 L13.997,14.662 C13.997,14.632 13.997,14.601 13.998,14.571 L13.998,14.55 L13.998,14.46 C13.998,14.454 13.998,14.45 13.999,14.444 L13.999,14.34 L13.999,14.321 C13.999,14.293 13.999,14.266 14,14.238 L14,14.206 L14,14.132 L14,14.102 L14,14 C14,6.269 20.268,0 28,0 C35.732,0 42,6.269 42,14 C42,31.865 37.073,48.946 28.006,63.672 C26.801,65.319 25.227,66.735 23.307,67.759 C21.209,68.877 18.953,69.407 16.732,69.407"></path>
        <path id="path-7" d="M50.916,92.787 C49.951,92.787 48.982,92.688 48.023,92.485 C43.973,91.63 40.51,89.026 38.563,85.373 L0.992,14.904 L4.504,8.314 C7.024,3.59 11.865,0.9 16.87,0.9 C19.092,0.9 21.347,1.43 23.445,2.549 C25.823,3.819 27.686,5.675 28.949,7.846 L54.379,55.525 L54.383,55.52 L58.365,62.99 C60.885,67.716 65.727,70.407 70.732,70.407 C72.953,70.407 75.209,69.877 77.307,68.759 C79.309,67.691 80.934,66.199 82.156,64.462 C76.299,74.043 68.699,82.638 59.551,89.807 C57.064,91.755 54.02,92.787 50.916,92.787"></path>
    </defs>
    <g id="Page-1" stroke="none" stroke-width="1" fill="none" fill-rule="evenodd" sketch:type="MSPage">
        <g id="OCL-Line-RGT_4c-(1)" sketch:type="MSLayerGroup">
            <g id="Group-3">
                <mask id="mask-2" sketch:name="Clip 2" fill="white">
                    <use xlink:href="#path-1"></use>
                </mask>
                <g id="Clip-2"></g>
                <path d="M95,162 C58.056,162 28,131.944 28,95 C28,58.057 58.056,28 95,28 C131.945,28 162,58.057 162,95 C162,109.888 157.162,124.005 148.379,135.525 C148.379,135.525 143.666,140.896 139.979,144.636 L151.209,165.792 L151.213,165.786 L153.396,169.882 L153.504,169.807 C176.668,151.653 190,124.388 190,95 C190,42.617 147.383,0 95,0 C42.617,0 0,42.617 0,95 C0,147.384 42.617,190 95,190 C102.732,190 109,183.732 109,176 C109,168.268 102.732,162 95,162" id="Fill-1" fill="#4AA241" sketch:type="MSShapeGroup" mask="url(#mask-2)"></path>
            </g>
            <g id="Group-6" transform="translate(148.000000, 95.000000)">
                <mask id="mask-4" sketch:name="Clip 5" fill="white">
                    <use xlink:href="#path-3"></use>
                </mask>
                <g id="Clip-5"></g>
                <path d="M0.379,40.525 L0.369,40.508 C9.022,29.166 13.853,15.312 13.997,0.675 C13.853,15.312 9.03,29.175 0.383,40.52 L0.379,40.525 M13.997,0.662 C13.997,0.632 13.997,0.602 13.998,0.571 C13.997,0.601 13.997,0.632 13.997,0.662 M13.998,0.55 L13.998,0.46 L13.998,0.55 M13.999,0.444 L13.999,0.34 L13.999,0.444 M13.999,0.321 C13.999,0.293 13.999,0.266 14,0.238 C13.999,0.266 13.999,0.293 13.999,0.321 M14,0.206 L14,0.132 L14,0.206 M14,0.102 L14,0 L14,0.102" id="Fill-4" sketch:type="MSShapeGroup" mask="url(#mask-4)"></path>
            </g>
            <g id="Group-9" transform="translate(148.000000, 81.000000)">
                <mask id="mask-6" sketch:name="Clip 8" fill="white">
                    <use xlink:href="#path-5"></use>
                </mask>
                <g id="Clip-8"></g>
                <path d="M16.732,69.407 C11.727,69.407 6.885,66.716 4.365,61.99 L0.383,54.52 C9.03,43.175 13.853,29.312 13.997,14.675 L13.997,14.662 C13.997,14.632 13.997,14.601 13.998,14.571 L13.998,14.55 L13.998,14.46 C13.998,14.454 13.998,14.45 13.999,14.444 L13.999,14.34 L13.999,14.321 C13.999,14.293 13.999,14.266 14,14.238 L14,14.206 L14,14.132 L14,14.102 L14,14 C14,6.269 20.268,0 28,0 C35.732,0 42,6.269 42,14 C42,31.865 37.073,48.946 28.006,63.672 C26.801,65.319 25.227,66.735 23.307,67.759 C21.209,68.877 18.953,69.407 16.732,69.407" id="Fill-7" sketch:type="MSShapeGroup" mask="url(#mask-6)"></path>
            </g>
            <path d="M171.307,148.759 C169.209,149.877 166.953,150.407 164.732,150.407 C159.727,150.407 154.885,147.716 152.365,142.99 L148.383,135.52 L148.379,135.525 L110.791,65.049 L81.002,65.049 C80.98,67.313 81.508,69.613 82.648,71.752 L132.563,165.373 C134.51,169.026 137.973,171.63 142.023,172.485 C142.982,172.688 143.951,172.787 144.916,172.787 C148.02,172.787 151.064,171.755 153.551,169.807 C162.699,162.638 170.299,154.043 176.156,144.462 C174.934,146.199 173.309,147.691 171.307,148.759" id="Fill-12" fill="#84BF41" sketch:type="MSShapeGroup"></path>
            <g id="Group-15" transform="translate(94.000000, 80.000000)">
                <mask id="mask-8" sketch:name="Clip 14" fill="white">
                    <use xlink:href="#path-7"></use>
                </mask>
                <g id="Clip-14"></g>
                <path d="M50.916,92.787 C49.951,92.787 48.982,92.688 48.023,92.485 C43.973,91.63 40.51,89.026 38.563,85.373 L0.992,14.904 L4.504,8.314 C7.024,3.59 11.865,0.9 16.87,0.9 C19.092,0.9 21.347,1.43 23.445,2.549 C25.823,3.819 27.686,5.675 28.949,7.846 L54.379,55.525 L54.383,55.52 L58.365,62.99 C60.885,67.716 65.727,70.407 70.732,70.407 C72.953,70.407 75.209,69.877 77.307,68.759 C79.309,67.691 80.934,66.199 82.156,64.462 C76.299,74.043 68.699,82.638 59.551,89.807 C57.064,91.755 54.02,92.787 50.916,92.787" id="Fill-13" sketch:type="MSShapeGroup" mask="url(#mask-8)"></path>
            </g>
            <path d="M98.504,88.314 C102.143,81.491 110.623,78.912 117.445,82.549 C119.998,83.912 121.957,85.951 123.219,88.33 L107.355,58.577 C104.924,54.014 100.174,51.164 95.002,51.164 C89.832,51.164 85.082,54.014 82.648,58.576 L23.619,169.29 C19.982,176.113 22.564,184.593 29.387,188.231 C31.484,189.35 33.738,189.88 35.961,189.88 C40.967,189.88 45.809,187.188 48.326,182.464 L98.504,88.314" id="Fill-16" fill="#C1DA94" sketch:type="MSShapeGroup"></path>
            <path d="M123.232,88.355 L123.219,88.33 L123.232,88.355" id="Fill-17" fill="#E2EEC9" sketch:type="MSShapeGroup"></path>
            <path d="M565.831,138.702 L543.493,138.702 C543.003,138.702 542.713,138.486 542.713,138.063 L542.713,95.587 C542.713,95.164 542.925,94.949 543.424,94.949 L546.536,94.949 C547.036,94.949 547.177,95.232 547.177,95.587 L547.177,134.728 L565.765,134.728 C566.186,134.728 566.465,134.941 566.465,135.373 L566.465,137.998 C566.465,138.486 566.25,138.702 565.831,138.702" id="Fill-18" fill="#8A8B8A" sketch:type="MSShapeGroup"></path>
            <path d="M574.423,118.563 L574.423,120.478 L589.737,120.478 L589.737,118.563 C589.737,114.313 586.9,111.043 582.084,111.043 C577.688,111.043 574.423,113.955 574.423,118.563 L574.423,118.563 Z M592.859,124.021 L574.423,124.021 L574.423,127.499 C574.423,131.824 576.693,135.373 582.151,135.373 C585.341,135.373 587.545,133.958 589.248,131.824 C589.601,131.331 589.953,131.331 590.382,131.609 L592.229,132.89 C592.721,133.173 592.787,133.455 592.647,133.811 C590.382,137.568 586.547,139.129 582.151,139.129 C574.775,139.129 570.095,134.598 570.095,127.713 L570.095,119.201 C570.095,112.041 575.206,107.362 582.084,107.362 C589.103,107.362 594.063,111.826 594.063,119.34 L594.063,122.532 C594.063,123.458 593.432,124.021 592.859,124.021 L592.859,124.021 Z" id="Fill-19" fill="#8A8B8A" sketch:type="MSShapeGroup"></path>
            <path d="M609.326,135.513 C613.586,135.513 616.487,132.321 616.487,128.351 C616.487,124.519 614.008,121.326 609.393,121.326 C604.856,121.326 602.164,124.519 602.164,128.416 C602.164,132.392 604.36,135.513 609.326,135.513 L609.326,135.513 Z M609.262,117.852 C611.807,117.852 614.792,118.913 616.487,120.837 L616.772,120.689 L616.772,117.645 C616.772,113.814 615.069,111.043 609.755,111.043 C607.768,111.043 604.146,111.753 602.305,112.677 C601.949,112.887 601.601,112.752 601.456,112.324 L600.531,110.055 C600.395,109.702 600.531,109.416 600.892,109.268 C603.3,107.998 607.059,107.295 610.18,107.295 C618.262,107.295 621.094,111.399 621.094,118.206 L621.094,138.063 C621.094,138.486 620.882,138.702 620.529,138.702 L617.627,138.702 C617.202,138.702 617.13,138.423 617.13,138.213 L617.13,135.727 L616.772,135.649 C614.926,138.135 611.807,139.129 608.69,139.129 C601.88,139.129 598.124,134.798 598.124,128.56 C598.124,122.602 602.018,117.852 609.262,117.852 L609.262,117.852 Z" id="Fill-20" fill="#8A8B8A" sketch:type="MSShapeGroup"></path>
            <path d="M632.059,107.786 C632.486,107.786 632.626,107.998 632.626,108.353 L632.626,112.249 L632.838,112.249 C634.541,109.486 637.868,107.295 641.421,107.295 C642.063,107.295 642.977,107.362 643.409,107.497 C643.972,107.715 644.044,107.924 643.972,108.42 L643.269,111.537 C643.195,112.107 642.768,112.183 642.417,112.107 C641.851,111.967 641.133,111.896 640.498,111.896 C635.395,111.896 633.125,115.583 633.125,120.408 L633.125,138.135 C633.125,138.558 632.98,138.702 632.557,138.702 L629.365,138.702 C629.015,138.702 628.729,138.558 628.729,138.213 L628.729,108.353 C628.729,107.924 628.939,107.786 629.293,107.786 L632.059,107.786" id="Fill-21" fill="#8A8B8A" sketch:type="MSShapeGroup"></path>
            <path d="M672.677,138.702 L669.482,138.702 C669.057,138.702 668.918,138.558 668.918,138.213 L668.918,119.126 C668.918,114.665 666.721,111.116 661.189,111.116 C656.661,111.116 653.534,114.595 653.534,118.983 L653.534,138.135 C653.534,138.558 653.395,138.702 652.965,138.702 L649.782,138.702 C649.425,138.702 649.216,138.558 649.216,138.213 L649.216,108.353 C649.216,107.924 649.425,107.786 649.782,107.786 L652.824,107.786 C653.258,107.786 653.325,107.924 653.325,108.353 L653.325,110.905 L653.611,110.977 C655.945,108.495 659.348,107.432 662.329,107.432 C669.771,107.432 673.246,112.612 673.246,119.126 L673.246,138.135 C673.246,138.558 673.029,138.702 672.677,138.702" id="Fill-22" fill="#8A8B8A" sketch:type="MSShapeGroup"></path>
            <path d="M680.093,108.277 C680.093,107.856 680.305,107.715 680.657,107.715 L683.849,107.715 C684.279,107.715 684.495,107.924 684.495,108.277 L684.495,138.213 C684.495,138.558 684.342,138.702 683.918,138.702 L680.732,138.702 C680.379,138.702 680.093,138.558 680.093,138.213 L680.093,108.277 L680.093,108.277 Z M682.362,101.267 C680.806,101.267 679.533,100.06 679.533,98.356 C679.533,96.793 680.806,95.587 682.362,95.587 C683.992,95.587 685.273,96.793 685.273,98.356 C685.273,99.916 683.918,101.267 682.362,101.267 L682.362,101.267 Z" id="Fill-23" fill="#8A8B8A" sketch:type="MSShapeGroup"></path>
            <path d="M715.023,138.702 L711.836,138.702 C711.409,138.702 711.274,138.558 711.274,138.213 L711.274,119.126 C711.274,114.665 709.069,111.116 703.535,111.116 C699.002,111.116 695.879,114.595 695.879,118.983 L695.879,138.135 C695.879,138.558 695.74,138.702 695.315,138.702 L692.126,138.702 C691.77,138.702 691.557,138.558 691.557,138.213 L691.557,108.353 C691.557,107.924 691.77,107.786 692.126,107.786 L695.176,107.786 C695.602,107.786 695.663,107.924 695.663,108.353 L695.663,110.905 L695.956,110.977 C698.294,108.495 701.691,107.432 704.674,107.432 C712.124,107.432 715.601,112.612 715.601,119.126 L715.601,138.135 C715.601,138.558 715.386,138.702 715.023,138.702" id="Fill-24" fill="#8A8B8A" sketch:type="MSShapeGroup"></path>
            <path d="M733.836,111.116 C729.217,111.116 726.172,114.519 726.172,118.494 C726.172,122.319 728.94,125.866 733.547,125.866 C738.439,125.866 741.277,122.393 741.277,118.418 C741.277,114.45 738.294,111.116 733.836,111.116 L733.836,111.116 Z M724.893,139.904 C724.683,139.904 724.468,139.979 724.329,139.979 C723.266,139.979 722.269,137.638 722.269,135.226 C722.269,132.89 724.113,129.909 727.311,127.993 L727.233,127.854 C723.832,126.221 721.846,122.181 721.846,118.278 C721.846,112.324 726.954,107.362 733.621,107.362 C736.243,107.362 739.572,107.998 741.769,110.194 C743.751,108.495 746.309,107.497 748.581,107.497 C749.08,107.497 749.215,107.856 749.215,108.353 L749.215,111.256 C749.215,111.753 749.146,111.896 748.787,111.896 L748.36,111.896 C747.017,111.896 744.959,112.183 743.969,112.677 C745.318,114.665 745.671,116.581 745.671,118.206 C745.671,125.797 739.145,129.413 732.129,129.413 C731.913,129.413 731.699,129.347 731.565,129.347 C729.077,129.625 726.454,133.173 726.454,135.373 C726.454,135.649 726.53,135.864 726.662,136.008 C729.792,135.298 733.331,134.941 735.46,134.941 C741.983,134.941 749.146,137.067 749.146,143.73 C749.146,147.498 746.309,150.971 742.91,152.674 C742.694,152.816 742.483,152.887 742.271,152.887 C742.059,152.887 741.841,152.746 741.632,152.392 L740.352,150.545 C740.287,150.399 740.213,150.329 740.213,150.19 C740.213,149.977 740.352,149.697 740.703,149.483 C742.76,148.205 744.746,146.143 744.746,144.021 C744.746,139.979 739.785,138.771 735.606,138.771 C732.552,138.771 728.373,139.339 724.893,139.904 L724.893,139.904 Z" id="Fill-25" fill="#8A8B8A" sketch:type="MSShapeGroup"></path>
            <path d="M489.131,110.439 L489.131,113.142 L510.721,113.142 L510.721,110.439 C510.721,104.447 506.727,99.841 499.928,99.841 C493.728,99.841 489.131,103.943 489.131,110.439 L489.131,110.439 Z M515.121,118.137 L489.131,118.137 L489.131,123.033 C489.131,129.129 492.334,134.128 500.025,134.128 C504.525,134.128 507.623,132.133 510.023,129.129 C510.521,128.435 511.023,128.435 511.622,128.831 L514.223,130.632 C514.921,131.029 515.021,131.431 514.821,131.931 C511.622,137.227 506.223,139.428 500.025,139.428 C489.631,139.428 483.032,133.03 483.032,123.336 L483.032,111.342 C483.032,101.239 490.233,94.639 499.928,94.639 C509.821,94.639 516.818,100.943 516.818,111.539 L516.818,116.04 C516.818,117.337 515.919,118.137 515.121,118.137 L515.121,118.137 Z" id="Fill-26" fill="#84BF41" sketch:type="MSShapeGroup"></path>
            <path d="M248.758,93.338 C248.758,87.023 244.35,81.914 236.533,81.914 C228.821,81.914 224.31,87.023 224.31,93.338 L224.31,122.097 C224.31,128.607 228.319,133.918 236.533,133.918 C244.149,133.918 248.758,129.308 248.758,122.397 L248.758,93.338 L248.758,93.338 Z M236.533,139.526 C225.214,139.526 218,132.814 218,122.297 L218,93.139 C218,83.018 225.715,76.306 236.436,76.306 C247.153,76.306 255.068,82.717 255.068,93.139 L255.068,122.598 C255.068,132.916 247.655,139.526 236.533,139.526 L236.533,139.526 Z" id="Fill-27" fill="#4AA241" sketch:type="MSShapeGroup"></path>
            <path d="M295.275,138.827 L290.766,138.827 C290.165,138.827 289.965,138.626 289.965,138.127 L289.965,111.181 C289.965,104.868 286.858,99.856 279.042,99.856 C272.631,99.856 268.223,104.77 268.223,110.98 L268.223,138.025 C268.223,138.626 268.024,138.827 267.423,138.827 L262.918,138.827 C262.415,138.827 262.115,138.626 262.115,138.127 L262.115,95.943 C262.115,95.342 262.415,95.145 262.918,95.145 L267.224,95.145 C267.826,95.145 267.922,95.342 267.922,95.943 L267.922,99.554 L268.323,99.655 C271.632,96.146 276.44,94.643 280.649,94.643 C291.164,94.643 296.072,101.961 296.072,111.181 L296.072,138.025 C296.072,138.626 295.771,138.827 295.275,138.827" id="Fill-28" fill="#4AA241" sketch:type="MSShapeGroup"></path>
            <path d="M336.878,84.919 L334.075,87.223 C333.672,87.725 332.767,87.525 332.368,86.922 C329.867,83.817 325.354,81.815 321.049,81.815 C313.939,81.815 309.43,86.523 309.43,92.937 L309.43,122.698 C309.43,129.007 313.835,133.918 321.45,133.918 C325.657,133.918 329.766,131.816 332.368,129.107 C333.07,128.308 333.572,127.908 334.375,128.509 L337.179,130.812 C337.678,131.214 337.78,131.816 337.379,132.316 C333.474,136.922 327.761,139.428 321.45,139.428 C310.533,139.428 303.118,133.115 303.118,122.797 L303.118,92.836 C303.118,83.018 310.431,76.306 321.049,76.306 C327.062,76.306 332.767,78.009 337.079,83.115 C337.578,83.715 337.578,84.221 336.878,84.919" id="Fill-29" fill="#84BF41" sketch:type="MSShapeGroup"></path>
            <path d="M370.58,110.98 C370.58,104.567 366.974,99.856 359.761,99.856 C353.25,99.856 348.843,104.469 348.843,110.88 L348.843,122.998 C348.843,129.611 352.249,134.22 359.662,134.22 C367.071,134.22 370.478,129.711 370.58,122.896 L370.58,110.98 L370.58,110.98 Z M359.761,139.428 C348.94,139.428 342.731,133.317 342.731,122.998 L342.731,110.88 C342.731,101.058 348.94,94.542 359.662,94.542 C370.278,94.542 376.585,100.659 376.585,110.88 L376.585,122.896 C376.585,133.415 370.178,139.428 359.761,139.428 L359.761,139.428 Z" id="Fill-30" fill="#84BF41" sketch:type="MSShapeGroup"></path>
            <path d="M383.281,95.041 L387.792,95.041 C388.394,95.041 388.59,95.242 388.59,95.844 L388.59,122.896 C388.59,129.107 391.999,134.02 399.412,134.02 C405.921,134.02 410.229,129.207 410.229,122.998 L410.229,95.844 C410.229,95.342 410.528,95.041 411.13,95.041 L415.54,95.041 C416.038,95.041 416.441,95.242 416.441,95.844 L416.441,138.025 C416.441,138.626 416.141,138.827 415.639,138.827 L411.332,138.827 C410.729,138.827 410.528,138.626 410.528,138.025 L410.528,134.318 L410.229,134.22 C407.223,137.822 402.117,139.327 398.008,139.327 C387.387,139.327 382.479,132.016 382.479,122.797 L382.479,95.844 C382.479,95.342 382.682,95.041 383.281,95.041" id="Fill-31" fill="#84BF41" sketch:type="MSShapeGroup"></path>
            <path d="M429.416,95.145 C430.017,95.145 430.218,95.445 430.218,95.943 L430.218,101.459 L430.517,101.459 C432.919,97.547 437.63,94.44 442.636,94.44 C443.54,94.44 444.839,94.542 445.441,94.74 C446.243,95.041 446.342,95.342 446.243,96.045 L445.242,100.458 C445.141,101.261 444.538,101.357 444.042,101.261 C443.239,101.058 442.238,100.96 441.336,100.96 C434.12,100.96 430.92,106.172 430.92,112.983 L430.92,138.025 C430.92,138.626 430.716,138.827 430.114,138.827 L425.606,138.827 C425.108,138.827 424.704,138.626 424.704,138.127 L424.704,95.943 C424.704,95.342 425.005,95.145 425.506,95.145 L429.416,95.145" id="Fill-32" fill="#84BF41" sketch:type="MSShapeGroup"></path>
            <path d="M463.604,139.428 C457.093,139.428 450.79,136.521 448.184,130.513 C447.986,130.109 447.986,129.711 448.483,129.51 L452.19,127.81 C452.692,127.508 453.091,127.908 453.294,128.208 C455.294,131.915 459.398,134.418 463.904,134.418 C469.11,134.418 472.813,131.513 472.813,127.609 C472.813,123.302 469.208,121.596 465.105,119.994 C458.999,117.691 449.286,115.29 449.286,106.472 C449.286,98.65 456.398,94.74 463.703,94.643 C469.11,94.542 474.218,96.446 477.625,100.057 C478.023,100.559 477.925,101.058 477.424,101.56 L475.317,103.866 C474.819,104.469 474.218,104.469 473.514,103.769 C470.91,101.357 467.106,99.756 463.604,99.756 C459.6,99.756 455.294,101.759 455.294,105.97 C455.294,110.079 459.499,111.982 463.604,113.486 C470.81,116.188 478.722,118.59 478.722,127.406 C478.722,133.616 473.617,139.428 463.604,139.428" id="Fill-33" fill="#84BF41" sketch:type="MSShapeGroup"></path>
        </g>
    </g>
</svg>